<svg id="Layer_1" data-name="Layer 1" xmlns="http://www.w3.org/2000/svg" viewBox="0 0 512 512"><defs><style>.cls-1{fill:#dc0c15;}</style></defs><path class="cls-1" d="M269.829,177.387c-20.161,62.358-39.384,123.308-58.607,185.667C178.4,464.8,140.893,502.772,91.194,502.772c-27.662,0-39.852-16.409-39.852-31.881,0-14.535,12.19-30.945,32.82-30.945,6.095,0,13.6,4.22,14.065,12.191,0,4.219-.937,10.783-.937,16.879,0,8.908,3.282,13.6,9.377,13.6,16.41,0,26.256-22.036,45.01-85.8l63.3-219.425h-42.2l6.1-18.285h42.2C254.825,58.3,302.18,15.631,358.912,15.631c31.413,0,46.885,18.286,46.885,35.164,0,14.535-12.19,30.476-36.57,30.945-1.876-.469-6.565-3.751-8.44-7.033-1.875-22.5-6.564-35.164-21.1-35.164-28.131,0-57.668,93.3-65.17,119.559,34.226,0,82.987-7.971,101.742-7.971,14.534,0,21.567,7.033,21.567,26.256,0,14.534-37.509,107.368-54.856,150.034L335,347.112l1.875,3.751c16.879-5.157,40.791-26.256,53.919-43.134l7.5,12.19c-15,30.944-67.516,67.984-99.4,67.984-14.535,0-21.567-6.564-21.567-13.6,0-20.16,71.266-175.821,71.266-188.011,0-5.157-2.344-8.908-9.846-8.908Z"/></svg>